<?xml version="1.0" encoding="UTF-8" standalone="no"?>
<!-- Created with Inkscape (http://www.inkscape.org/) -->

<svg
   xmlns:dc="http://purl.org/dc/elements/1.1/"
   xmlns:cc="http://creativecommons.org/ns#"
   xmlns:rdf="http://www.w3.org/1999/02/22-rdf-syntax-ns#"
   xmlns:svg="http://www.w3.org/2000/svg"
   xmlns="http://www.w3.org/2000/svg"
   xmlns:sodipodi="http://sodipodi.sourceforge.net/DTD/sodipodi-0.dtd"
   xmlns:inkscape="http://www.inkscape.org/namespaces/inkscape"
   version="1.1"
   id="svg2"
   width="794.5"
   height="1123.5"
   viewBox="0 0 794.5 1123.5"
   sodipodi:docname="grid.svg"
   inkscape:export-filename="C:\Users\mletn\Desktop\Hackaton\arrow-race\Objects\grid.png"
   inkscape:export-xdpi="96"
   inkscape:export-ydpi="96"
   inkscape:version="0.92.4 (5da689c313, 2019-01-14)">
  <metadata
     id="metadata8">
    <rdf:RDF>
      <cc:Work
         rdf:about="">
        <dc:format>image/svg+xml</dc:format>
        <dc:type
           rdf:resource="http://purl.org/dc/dcmitype/StillImage" />
        <dc:title></dc:title>
      </cc:Work>
    </rdf:RDF>
  </metadata>
  <defs
     id="defs6" />
  <sodipodi:namedview
     pagecolor="#ffffff"
     bordercolor="#666666"
     borderopacity="1"
     objecttolerance="10"
     gridtolerance="10"
     guidetolerance="10"
     inkscape:pageopacity="0"
     inkscape:pageshadow="2"
     inkscape:window-width="958"
     inkscape:window-height="991"
     id="namedview4"
     showgrid="false"
     inkscape:zoom="0.5"
     inkscape:cx="336.65267"
     inkscape:cy="440.1194"
     inkscape:window-x="-8"
     inkscape:window-y="0"
     inkscape:window-maximized="0"
     inkscape:current-layer="svg2" />
  <path
     d="m 0.5,0.5 v 1123 m 10,-1123 v 1123 m 10,-1123 v 1123 m 10,-1123 v 1123 m 10,-1123 v 1123 m 10,-1123 v 1123 m 10,-1123 v 1123 m 10,-1123 v 1123 m 10,-1123 v 1123 m 10,-1123 v 1123 m 10,-1123 v 1123 m 10,-1123 v 1123 m 10,-1123 v 1123 m 10,-1123 v 1123 m 10,-1123 v 1123 m 10,-1123 v 1123 m 10,-1123 v 1123 m 10,-1123 v 1123 m 10,-1123 v 1123 m 10,-1123 v 1123 m 10,-1123 v 1123 m 10,-1123 v 1123 m 10,-1123 v 1123 m 10,-1123 v 1123 m 10,-1123 v 1123 m 10,-1123 v 1123 m 10,-1123 v 1123 m 10,-1123 v 1123 m 10,-1123 v 1123 m 10,-1123 v 1123 m 10,-1123 v 1123 m 10,-1123 v 1123 m 10,-1123 v 1123 m 10,-1123 v 1123 m 10,-1123 v 1123 m 10,-1123 v 1123 m 10,-1123 v 1123 m 10,-1123 v 1123 m 10,-1123 v 1123 m 10,-1123 v 1123 m 10,-1123 v 1123 m 10,-1123 v 1123 m 10,-1123 v 1123 m 10,-1123 v 1123 m 10,-1123 v 1123 m 10,-1123 v 1123 m 10,-1123 v 1123 m 10,-1123 v 1123 m 10,-1123 v 1123 m 10,-1123 v 1123 m 10,-1123 v 1123 m 10,-1123 v 1123 m 10,-1123 v 1123 m 10,-1123 v 1123 m 10,-1123 v 1123 m 10,-1123 v 1123 m 10,-1123 v 1123 m 10,-1123 v 1123 m 10,-1123 v 1123 m 10,-1123 v 1123 m 10,-1123 v 1123 m 10,-1123 v 1123 m 10,-1123 v 1123 m 10,-1123 v 1123 m 10,-1123 v 1123 m 10,-1123 v 1123 m 10,-1123 v 1123 m 10,-1123 v 1123 m 10,-1123 v 1123 m 10,-1123 v 1123 m 10,-1123 v 1123 m 10,-1123 v 1123 m 10,-1123 v 1123 m 10,-1123 v 1123 m 10,-1123 v 1123 m 10,-1123 v 1123 m 10,-1123 v 1123 m 10,-1123 v 1123 m 10,-1123 v 1123 m 10,-1123 v 1123 M 0.5,0.5 h 794 m -794,10 h 794 m -794,10 h 794 m -794,10 h 794 m -794,10 h 794 m -794,10 h 794 m -794,10 h 794 m -794,10 h 794 m -794,10 h 794 m -794,10 h 794 m -794,10 h 794 m -794,10 h 794 m -794,10 h 794 m -794,10 h 794 m -794,10 h 794 m -794,10 h 794 m -794,10 h 794 m -794,10 h 794 m -794,10 h 794 m -794,10 h 794 m -794,10 h 794 m -794,10 h 794 m -794,10 h 794 m -794,10 h 794 m -794,10 h 794 m -794,10 h 794 m -794,10 h 794 m -794,10 h 794 m -794,10 h 794 m -794,10 h 794 m -794,10 h 794 m -794,10 h 794 m -794,10 h 794 m -794,10 h 794 m -794,10 h 794 m -794,10 h 794 m -794,10 h 794 m -794,10 h 794 m -794,10 h 794 m -794,10 h 794 m -794,10 h 794 m -794,10 h 794 m -794,10 h 794 m -794,10 h 794 m -794,10 h 794 m -794,10 h 794 m -794,10 h 794 m -794,10 h 794 m -794,10 h 794 m -794,10 h 794 m -794,10 h 794 m -794,10 h 794 m -794,10 h 794 m -794,10 h 794 m -794,10 h 794 m -794,10 h 794 m -794,10 h 794 m -794,10 h 794 m -794,10 h 794 m -794,10 h 794 m -794,10 h 794 m -794,10 h 794 m -794,10 h 794 m -794,10 h 794 m -794,10 h 794 m -794,10 h 794 m -794,10 h 794 m -794,10 h 794 m -794,10 h 794 m -794,10 h 794 m -794,10 h 794 m -794,10 h 794 m -794,10 h 794 m -794,10 h 794 m -794,10 h 794 m -794,10 h 794 m -794,10 h 794 m -794,10 h 794 m -794,10 h 794 m -794,10 h 794 m -794,10 h 794 m -794,10 h 794 m -794,10 h 794 m -794,10 h 794 m -794,10 h 794 m -794,10 h 794 m -794,10 h 794 m -794,10 h 794 m -794,10 h 794 m -794,10 h 794 m -794,10 h 794 m -794,10 h 794 m -794,10 h 794 m -794,10 h 794 m -794,10 h 794 m -794,10 h 794 m -794,10 h 794 m -794,10 h 794 m -794,10 h 794 m -794,10 h 794 m -794,10 h 794 m -794,10 h 794 m -794,10 h 794 m -794,10 h 794 m -794,10 h 794 m -794,10 h 794 m -794,10 h 794 m -794,10 h 794 m -794,10 h 794 m -794,10 h 794 m -794,10 h 794 m -794,10 h 794 m -794,10 h 794"
     style="fill:none;stroke:#000000;stroke-width:1px"
     id="path12"
     inkscape:connector-curvature="0" />
</svg>
